<svg xmlns="http://www.w3.org/2000/svg" xmlns:xlink="http://www.w3.org/1999/xlink" width="500" zoomAndPan="magnify" viewBox="0 0 375 104.999996" height="140" preserveAspectRatio="xMidYMid meet" version="1.2"><defs><clipPath id="ee25d9611d"><path d="M 6.136719 22.554688 L 72.136719 22.554688 L 72.136719 87.804688 L 6.136719 87.804688 Z M 6.136719 22.554688 "/></clipPath></defs><g id="e5c2372b60"><g clip-rule="nonzero" clip-path="url(#ee25d9611d)"><path style=" stroke:none;fill-rule:evenodd;fill:#00a2e2;fill-opacity:1;" d="M 39.089844 22.554688 L 72.03125 87.804688 L 57.757812 87.804688 L 45.226562 79.679688 L 38.582031 83.609375 L 43.628906 74.777344 C 43.382812 71.820312 44.839844 64.175781 44.839844 64.175781 C 40.207031 62.964844 39.136719 63.257812 39.136719 63.257812 L 39.042969 51.128906 L 20.484375 87.804688 L 6.148438 87.804688 Z M 39.089844 22.554688 "/></g><g style="fill:#0d1b2e;fill-opacity:1;"><g transform="translate(81.111202, 79.664477)"><path style="stroke:none" d="M 39.15625 -11.09375 C 39.15625 -8.664062 38.523438 -6.632812 37.265625 -5 C 36.015625 -3.363281 34.328125 -2.117188 32.203125 -1.265625 C 30.085938 -0.421875 27.78125 0 25.28125 0 L 4.484375 0 L 4.484375 -43.03125 L 27.515625 -43.03125 C 29.535156 -43.03125 31.28125 -42.492188 32.75 -41.421875 C 34.226562 -40.359375 35.359375 -38.988281 36.140625 -37.3125 C 36.929688 -35.632812 37.328125 -33.882812 37.328125 -32.0625 C 37.328125 -30 36.800781 -28.035156 35.75 -26.171875 C 34.707031 -24.316406 33.175781 -22.945312 31.15625 -22.0625 C 33.613281 -21.332031 35.5625 -20.019531 37 -18.125 C 38.4375 -16.226562 39.15625 -13.882812 39.15625 -11.09375 Z M 30.734375 -12.671875 C 30.734375 -13.753906 30.507812 -14.726562 30.0625 -15.59375 C 29.613281 -16.46875 29.015625 -17.15625 28.265625 -17.65625 C 27.523438 -18.164062 26.671875 -18.421875 25.703125 -18.421875 L 12.84375 -18.421875 L 12.84375 -7.09375 L 25.28125 -7.09375 C 26.289062 -7.09375 27.207031 -7.34375 28.03125 -7.84375 C 28.863281 -8.351562 29.519531 -9.03125 30 -9.875 C 30.488281 -10.726562 30.734375 -11.660156 30.734375 -12.671875 Z M 12.84375 -35.875 L 12.84375 -25.03125 L 24 -25.03125 C 24.925781 -25.03125 25.773438 -25.25 26.546875 -25.6875 C 27.316406 -26.132812 27.929688 -26.765625 28.390625 -27.578125 C 28.859375 -28.390625 29.09375 -29.359375 29.09375 -30.484375 C 29.09375 -31.578125 28.878906 -32.523438 28.453125 -33.328125 C 28.023438 -34.140625 27.457031 -34.765625 26.75 -35.203125 C 26.050781 -35.648438 25.253906 -35.875 24.359375 -35.875 Z M 12.84375 -35.875 "/></g></g><g style="fill:#0d1b2e;fill-opacity:1;"><g transform="translate(119.293335, 79.664477)"><path style="stroke:none" d="M 1.515625 -9.390625 C 1.515625 -11.453125 2.085938 -13.257812 3.234375 -14.8125 C 4.390625 -16.375 6 -17.578125 8.0625 -18.421875 C 10.125 -19.273438 12.488281 -19.703125 15.15625 -19.703125 C 16.488281 -19.703125 17.84375 -19.597656 19.21875 -19.390625 C 20.59375 -19.191406 21.785156 -18.867188 22.796875 -18.421875 L 22.796875 -20.125 C 22.796875 -22.144531 22.195312 -23.695312 21 -24.78125 C 19.8125 -25.875 18.046875 -26.421875 15.703125 -26.421875 C 13.960938 -26.421875 12.300781 -26.117188 10.71875 -25.515625 C 9.144531 -24.910156 7.492188 -24.019531 5.765625 -22.84375 L 3.15625 -28.1875 C 5.25 -29.5625 7.394531 -30.59375 9.59375 -31.28125 C 11.800781 -31.96875 14.117188 -32.3125 16.546875 -32.3125 C 21.066406 -32.3125 24.585938 -31.175781 27.109375 -28.90625 C 29.640625 -26.644531 30.90625 -23.414062 30.90625 -19.21875 L 30.90625 -9.09375 C 30.90625 -8.238281 31.054688 -7.628906 31.359375 -7.265625 C 31.660156 -6.910156 32.15625 -6.691406 32.84375 -6.609375 L 32.84375 0 C 32.125 0.125 31.46875 0.222656 30.875 0.296875 C 30.289062 0.378906 29.796875 0.421875 29.390625 0.421875 C 27.773438 0.421875 26.550781 0.0625 25.71875 -0.65625 C 24.894531 -1.382812 24.382812 -2.273438 24.1875 -3.328125 L 24 -4.96875 C 22.625 -3.1875 20.90625 -1.8125 18.84375 -0.84375 C 16.789062 0.125 14.691406 0.609375 12.546875 0.609375 C 10.441406 0.609375 8.550781 0.175781 6.875 -0.6875 C 5.195312 -1.5625 3.882812 -2.753906 2.9375 -4.265625 C 1.988281 -5.785156 1.515625 -7.492188 1.515625 -9.390625 Z M 21.28125 -7.765625 C 21.71875 -8.242188 22.078125 -8.722656 22.359375 -9.203125 C 22.648438 -9.691406 22.796875 -10.140625 22.796875 -10.546875 L 22.796875 -13.765625 C 21.816406 -14.160156 20.757812 -14.46875 19.625 -14.6875 C 18.5 -14.914062 17.429688 -15.03125 16.421875 -15.03125 C 14.328125 -15.03125 12.601562 -14.570312 11.25 -13.65625 C 9.894531 -12.75 9.21875 -11.550781 9.21875 -10.0625 C 9.21875 -9.25 9.4375 -8.476562 9.875 -7.75 C 10.320312 -7.03125 10.96875 -6.445312 11.8125 -6 C 12.664062 -5.550781 13.675781 -5.328125 14.84375 -5.328125 C 16.0625 -5.328125 17.253906 -5.5625 18.421875 -6.03125 C 19.597656 -6.5 20.550781 -7.078125 21.28125 -7.765625 Z M 21.28125 -7.765625 "/></g></g><g style="fill:#0d1b2e;fill-opacity:1;"><g transform="translate(151.05108, 79.664477)"><path style="stroke:none" d="M 15.390625 0.609375 C 12.679688 0.609375 10.09375 0.164062 7.625 -0.71875 C 5.164062 -1.613281 3.046875 -2.929688 1.265625 -4.671875 L 4.1875 -9.9375 C 6.082031 -8.40625 7.945312 -7.273438 9.78125 -6.546875 C 11.625 -5.816406 13.394531 -5.453125 15.09375 -5.453125 C 16.664062 -5.453125 17.925781 -5.734375 18.875 -6.296875 C 19.820312 -6.867188 20.296875 -7.71875 20.296875 -8.84375 C 20.296875 -9.613281 20.035156 -10.207031 19.515625 -10.625 C 18.992188 -11.050781 18.238281 -11.425781 17.25 -11.75 C 16.257812 -12.082031 15.054688 -12.445312 13.640625 -12.84375 C 11.296875 -13.613281 9.332031 -14.363281 7.75 -15.09375 C 6.175781 -15.820312 4.992188 -16.738281 4.203125 -17.84375 C 3.421875 -18.957031 3.03125 -20.382812 3.03125 -22.125 C 3.03125 -24.226562 3.566406 -26.035156 4.640625 -27.546875 C 5.710938 -29.054688 7.207031 -30.234375 9.125 -31.078125 C 11.039062 -31.929688 13.289062 -32.359375 15.875 -32.359375 C 18.144531 -32.359375 20.285156 -32.003906 22.296875 -31.296875 C 24.316406 -30.597656 26.15625 -29.457031 27.8125 -27.875 L 24.546875 -22.734375 C 22.929688 -23.984375 21.394531 -24.898438 19.9375 -25.484375 C 18.488281 -26.066406 17.015625 -26.359375 15.515625 -26.359375 C 14.671875 -26.359375 13.875 -26.257812 13.125 -26.0625 C 12.375 -25.863281 11.765625 -25.53125 11.296875 -25.0625 C 10.835938 -24.59375 10.609375 -23.9375 10.609375 -23.09375 C 10.609375 -22.320312 10.816406 -21.722656 11.234375 -21.296875 C 11.660156 -20.878906 12.304688 -20.507812 13.171875 -20.1875 C 14.046875 -19.863281 15.109375 -19.5 16.359375 -19.09375 C 18.910156 -18.363281 21.0625 -17.613281 22.8125 -16.84375 C 24.570312 -16.082031 25.894531 -15.144531 26.78125 -14.03125 C 27.675781 -12.914062 28.125 -11.390625 28.125 -9.453125 C 28.125 -6.304688 26.972656 -3.84375 24.671875 -2.0625 C 22.367188 -0.28125 19.273438 0.609375 15.390625 0.609375 Z M 15.390625 0.609375 "/></g></g><g style="fill:#0d1b2e;fill-opacity:1;"><g transform="translate(177.960224, 79.664477)"><path style="stroke:none" d="M 18.421875 0.609375 C 15.878906 0.609375 13.578125 0.175781 11.515625 -0.6875 C 9.453125 -1.5625 7.691406 -2.753906 6.234375 -4.265625 C 4.785156 -5.785156 3.664062 -7.523438 2.875 -9.484375 C 2.09375 -11.441406 1.703125 -13.515625 1.703125 -15.703125 C 1.703125 -18.734375 2.378906 -21.5 3.734375 -24 C 5.085938 -26.507812 7.023438 -28.519531 9.546875 -30.03125 C 12.066406 -31.550781 15.046875 -32.3125 18.484375 -32.3125 C 21.960938 -32.3125 24.929688 -31.550781 27.390625 -30.03125 C 29.859375 -28.519531 31.75 -26.519531 33.0625 -24.03125 C 34.375 -21.539062 35.03125 -18.863281 35.03125 -16 C 35.03125 -15.519531 35.007812 -15.023438 34.96875 -14.515625 C 34.925781 -14.015625 34.882812 -13.601562 34.84375 -13.28125 L 10.296875 -13.28125 C 10.460938 -11.65625 10.9375 -10.238281 11.71875 -9.03125 C 12.507812 -7.820312 13.519531 -6.898438 14.75 -6.265625 C 15.988281 -5.640625 17.316406 -5.328125 18.734375 -5.328125 C 20.347656 -5.328125 21.867188 -5.722656 23.296875 -6.515625 C 24.734375 -7.304688 25.71875 -8.347656 26.25 -9.640625 L 33.21875 -7.703125 C 32.445312 -6.078125 31.34375 -4.640625 29.90625 -3.390625 C 28.476562 -2.140625 26.789062 -1.160156 24.84375 -0.453125 C 22.90625 0.253906 20.765625 0.609375 18.421875 0.609375 Z M 10.125 -18.421875 L 26.734375 -18.421875 C 26.566406 -20.035156 26.109375 -21.4375 25.359375 -22.625 C 24.617188 -23.820312 23.640625 -24.753906 22.421875 -25.421875 C 21.210938 -26.085938 19.859375 -26.421875 18.359375 -26.421875 C 16.910156 -26.421875 15.585938 -26.085938 14.390625 -25.421875 C 13.203125 -24.753906 12.234375 -23.820312 11.484375 -22.625 C 10.734375 -21.4375 10.28125 -20.035156 10.125 -18.421875 Z M 10.125 -18.421875 "/></g></g><g style="fill:#0d1b2e;fill-opacity:1;"><g transform="translate(211.233156, 79.664477)"><path style="stroke:none" d="M 18.484375 0.609375 C 15.898438 0.609375 13.578125 0.175781 11.515625 -0.6875 C 9.453125 -1.5625 7.691406 -2.773438 6.234375 -4.328125 C 4.785156 -5.890625 3.664062 -7.660156 2.875 -9.640625 C 2.09375 -11.617188 1.703125 -13.695312 1.703125 -15.875 C 1.703125 -18.863281 2.378906 -21.597656 3.734375 -24.078125 C 5.085938 -26.566406 7.015625 -28.5625 9.515625 -30.0625 C 12.023438 -31.5625 14.992188 -32.3125 18.421875 -32.3125 C 21.859375 -32.3125 24.804688 -31.5625 27.265625 -30.0625 C 29.734375 -28.5625 31.578125 -26.601562 32.796875 -24.1875 L 24.84375 -21.765625 C 24.15625 -22.929688 23.242188 -23.828125 22.109375 -24.453125 C 20.984375 -25.078125 19.734375 -25.390625 18.359375 -25.390625 C 16.828125 -25.390625 15.425781 -24.992188 14.15625 -24.203125 C 12.882812 -23.421875 11.882812 -22.3125 11.15625 -20.875 C 10.425781 -19.445312 10.0625 -17.78125 10.0625 -15.875 C 10.0625 -14.019531 10.429688 -12.375 11.171875 -10.9375 C 11.921875 -9.5 12.921875 -8.363281 14.171875 -7.53125 C 15.429688 -6.707031 16.828125 -6.296875 18.359375 -6.296875 C 19.328125 -6.296875 20.242188 -6.457031 21.109375 -6.78125 C 21.984375 -7.101562 22.765625 -7.546875 23.453125 -8.109375 C 24.140625 -8.679688 24.644531 -9.332031 24.96875 -10.0625 L 32.90625 -7.640625 C 32.175781 -6.054688 31.113281 -4.640625 29.71875 -3.390625 C 28.332031 -2.140625 26.695312 -1.160156 24.8125 -0.453125 C 22.9375 0.253906 20.828125 0.609375 18.484375 0.609375 Z M 18.484375 0.609375 "/></g></g><g style="fill:#0d1b2e;fill-opacity:1;"><g transform="translate(242.384817, 79.664477)"><path style="stroke:none" d="M 1.515625 -9.390625 C 1.515625 -11.453125 2.085938 -13.257812 3.234375 -14.8125 C 4.390625 -16.375 6 -17.578125 8.0625 -18.421875 C 10.125 -19.273438 12.488281 -19.703125 15.15625 -19.703125 C 16.488281 -19.703125 17.84375 -19.597656 19.21875 -19.390625 C 20.59375 -19.191406 21.785156 -18.867188 22.796875 -18.421875 L 22.796875 -20.125 C 22.796875 -22.144531 22.195312 -23.695312 21 -24.78125 C 19.8125 -25.875 18.046875 -26.421875 15.703125 -26.421875 C 13.960938 -26.421875 12.300781 -26.117188 10.71875 -25.515625 C 9.144531 -24.910156 7.492188 -24.019531 5.765625 -22.84375 L 3.15625 -28.1875 C 5.25 -29.5625 7.394531 -30.59375 9.59375 -31.28125 C 11.800781 -31.96875 14.117188 -32.3125 16.546875 -32.3125 C 21.066406 -32.3125 24.585938 -31.175781 27.109375 -28.90625 C 29.640625 -26.644531 30.90625 -23.414062 30.90625 -19.21875 L 30.90625 -9.09375 C 30.90625 -8.238281 31.054688 -7.628906 31.359375 -7.265625 C 31.660156 -6.910156 32.15625 -6.691406 32.84375 -6.609375 L 32.84375 0 C 32.125 0.125 31.46875 0.222656 30.875 0.296875 C 30.289062 0.378906 29.796875 0.421875 29.390625 0.421875 C 27.773438 0.421875 26.550781 0.0625 25.71875 -0.65625 C 24.894531 -1.382812 24.382812 -2.273438 24.1875 -3.328125 L 24 -4.96875 C 22.625 -3.1875 20.90625 -1.8125 18.84375 -0.84375 C 16.789062 0.125 14.691406 0.609375 12.546875 0.609375 C 10.441406 0.609375 8.550781 0.175781 6.875 -0.6875 C 5.195312 -1.5625 3.882812 -2.753906 2.9375 -4.265625 C 1.988281 -5.785156 1.515625 -7.492188 1.515625 -9.390625 Z M 21.28125 -7.765625 C 21.71875 -8.242188 22.078125 -8.722656 22.359375 -9.203125 C 22.648438 -9.691406 22.796875 -10.140625 22.796875 -10.546875 L 22.796875 -13.765625 C 21.816406 -14.160156 20.757812 -14.46875 19.625 -14.6875 C 18.5 -14.914062 17.429688 -15.03125 16.421875 -15.03125 C 14.328125 -15.03125 12.601562 -14.570312 11.25 -13.65625 C 9.894531 -12.75 9.21875 -11.550781 9.21875 -10.0625 C 9.21875 -9.25 9.4375 -8.476562 9.875 -7.75 C 10.320312 -7.03125 10.96875 -6.445312 11.8125 -6 C 12.664062 -5.550781 13.675781 -5.328125 14.84375 -5.328125 C 16.0625 -5.328125 17.253906 -5.5625 18.421875 -6.03125 C 19.597656 -6.5 20.550781 -7.078125 21.28125 -7.765625 Z M 21.28125 -7.765625 "/></g></g><g style="fill:#0d1b2e;fill-opacity:1;"><g transform="translate(274.142563, 79.664477)"><path style="stroke:none" d="M 53.03125 0 L 44.90625 0 L 44.90625 -17.8125 C 44.90625 -20.320312 44.472656 -22.171875 43.609375 -23.359375 C 42.742188 -24.554688 41.539062 -25.15625 40 -25.15625 C 38.425781 -25.15625 36.921875 -24.535156 35.484375 -23.296875 C 34.046875 -22.066406 33.023438 -20.460938 32.421875 -18.484375 L 32.421875 0 L 24.296875 0 L 24.296875 -17.8125 C 24.296875 -20.363281 23.863281 -22.222656 23 -23.390625 C 22.132812 -24.566406 20.929688 -25.15625 19.390625 -25.15625 C 17.816406 -25.15625 16.3125 -24.546875 14.875 -23.328125 C 13.445312 -22.117188 12.425781 -20.523438 11.8125 -18.546875 L 11.8125 0 L 3.703125 0 L 3.703125 -31.765625 L 11.03125 -31.765625 L 11.03125 -25.875 C 12.238281 -27.9375 13.851562 -29.523438 15.875 -30.640625 C 17.894531 -31.753906 20.21875 -32.3125 22.84375 -32.3125 C 25.476562 -32.3125 27.53125 -31.660156 29 -30.359375 C 30.476562 -29.066406 31.414062 -27.472656 31.8125 -25.578125 C 33.113281 -27.753906 34.765625 -29.421875 36.765625 -30.578125 C 38.765625 -31.734375 41.015625 -32.3125 43.515625 -32.3125 C 45.492188 -32.3125 47.097656 -31.957031 48.328125 -31.25 C 49.566406 -30.539062 50.53125 -29.585938 51.21875 -28.390625 C 51.90625 -27.203125 52.378906 -25.859375 52.640625 -24.359375 C 52.898438 -22.867188 53.03125 -21.351562 53.03125 -19.8125 Z M 53.03125 0 "/></g></g><g style="fill:#0d1b2e;fill-opacity:1;"><g transform="translate(327.537171, 79.664477)"><path style="stroke:none" d="M 22.734375 0.609375 C 20.265625 0.609375 18.085938 0.0507812 16.203125 -1.0625 C 14.328125 -2.175781 12.863281 -3.679688 11.8125 -5.578125 L 11.8125 12.90625 L 3.703125 12.90625 L 3.703125 -31.765625 L 10.78125 -31.765625 L 10.78125 -26.296875 C 12 -28.160156 13.535156 -29.628906 15.390625 -30.703125 C 17.253906 -31.773438 19.378906 -32.3125 21.765625 -32.3125 C 23.898438 -32.3125 25.863281 -31.882812 27.65625 -31.03125 C 29.457031 -30.1875 31.023438 -29.003906 32.359375 -27.484375 C 33.691406 -25.972656 34.734375 -24.234375 35.484375 -22.265625 C 36.234375 -20.304688 36.609375 -18.195312 36.609375 -15.9375 C 36.609375 -12.863281 36.007812 -10.070312 34.8125 -7.5625 C 33.625 -5.0625 31.988281 -3.070312 29.90625 -1.59375 C 27.832031 -0.125 25.441406 0.609375 22.734375 0.609375 Z M 20 -6.296875 C 21.25 -6.296875 22.378906 -6.554688 23.390625 -7.078125 C 24.398438 -7.609375 25.28125 -8.328125 26.03125 -9.234375 C 26.78125 -10.148438 27.34375 -11.179688 27.71875 -12.328125 C 28.101562 -13.484375 28.296875 -14.6875 28.296875 -15.9375 C 28.296875 -17.269531 28.082031 -18.5 27.65625 -19.625 C 27.238281 -20.757812 26.625 -21.757812 25.8125 -22.625 C 25.007812 -23.5 24.070312 -24.175781 23 -24.65625 C 21.925781 -25.144531 20.765625 -25.390625 19.515625 -25.390625 C 18.742188 -25.390625 17.960938 -25.257812 17.171875 -25 C 16.390625 -24.738281 15.632812 -24.363281 14.90625 -23.875 C 14.175781 -23.394531 13.539062 -22.832031 13 -22.1875 C 12.457031 -21.539062 12.0625 -20.832031 11.8125 -20.0625 L 11.8125 -12.609375 C 12.300781 -11.429688 12.957031 -10.359375 13.78125 -9.390625 C 14.613281 -8.421875 15.570312 -7.660156 16.65625 -7.109375 C 17.75 -6.566406 18.863281 -6.296875 20 -6.296875 Z M 20 -6.296875 "/></g></g></g></svg>